<svg id="画像_ロゴ" data-name="画像/ロゴ" xmlns="http://www.w3.org/2000/svg" width="150" height="32.484" viewBox="0 0 150 32.484">
  <path id="CAMPHACKロゴ" d="M99.45,80a7.518,7.518,0,0,1,2.915.561,6.991,6.991,0,0,1,2.33,1.568,7.227,7.227,0,0,1,1.549,2.424,8.233,8.233,0,0,1,.561,3.074v1.793H102.23V87.9a3.675,3.675,0,0,0-.763-2.328,2.468,2.468,0,0,0-2.063-.989,2.322,2.322,0,0,0-2.265,1.054,5.636,5.636,0,0,0-.561,2.667v16.331a4.228,4.228,0,0,0,.608,2.337,2.386,2.386,0,0,0,2.176.94,3.279,3.279,0,0,0,.963-.158,2.644,2.644,0,0,0,.942-.516,2.606,2.606,0,0,0,.7-.987,4.022,4.022,0,0,0,.266-1.568v-1.571h4.576v1.974a7.269,7.269,0,0,1-.561,2.827,7.346,7.346,0,0,1-1.549,2.353,7.575,7.575,0,0,1-2.308,1.615,6.72,6.72,0,0,1-2.85.608,10.25,10.25,0,0,1-2.648-.361,6.4,6.4,0,0,1-2.42-1.234,6.607,6.607,0,0,1-1.775-2.308,8.354,8.354,0,0,1-.7-3.635V87.359a7.857,7.857,0,0,1,.539-2.915,6.894,6.894,0,0,1,1.525-2.332,7.117,7.117,0,0,1,2.358-1.548A7.928,7.928,0,0,1,99.45,80Zm79.507,0V93.793h5.262V80h4.362v32.482h-4.362V98.718h-5.262v13.766H174.6V80Zm38.187,0a6.129,6.129,0,0,1,4.777,2.228,7.842,7.842,0,0,1,1.962,5.367v3.62h-4.417V87.5a2.836,2.836,0,0,0-.721-1.949,2.247,2.247,0,0,0-1.736-.81,2.213,2.213,0,0,0-1.724.81,2.857,2.857,0,0,0-.71,1.949v17.367a2.811,2.811,0,0,0,.71,1.937,2.223,2.223,0,0,0,1.724.8,2.258,2.258,0,0,0,1.736-.8,2.79,2.79,0,0,0,.721-1.937v-4.379h4.417v4.43a7.734,7.734,0,0,1-1.984,5.368,6.259,6.259,0,0,1-9.544-.012,7.77,7.77,0,0,1-1.972-5.356V87.6a7.783,7.783,0,0,1,1.983-5.381A6.191,6.191,0,0,1,217.144,80ZM231,80V91.579L236.323,80h4.647L235.005,93.25,242,112.483h-5.124L232.3,99.3l-1.3,2.891v10.3h-4.358V80Zm-29.362,0,7.251,32.482h-4.654l-1.367-6.981L199.7,88.82l-4.539,23.663H190.5L197.757,80Zm-82.965,0,7.256,32.482h-4.653L119.9,105.5h-6.338l-1.37,6.981h-4.654L114.8,80Zm40.994,0a10.418,10.418,0,0,1,3.377.506,6.438,6.438,0,0,1,2.648,1.78,7,7,0,0,1,1.641,2.989,18.751,18.751,0,0,1,.456,4.629,22.991,22.991,0,0,1-.254,3.673,7.733,7.733,0,0,1-1.07,2.85,6.729,6.729,0,0,1-2.556,2.485,8.593,8.593,0,0,1-4.2.889h-2.37v12.681h-4.653V80Zm-26.593,0,5.978,17.2h.089L145.072,80h4.516v32.482h-4.654V92.73h-.09l-4.612,13.961h-2.321L133.347,92.73h-.091v19.751H128.6V80Zm-16.313,9.356h-.092l-2.283,11.768h4.653Zm43-4.973H157.34V95.424h2.232a4.778,4.778,0,0,0,2.189-.41A2.615,2.615,0,0,0,162.9,93.9a4.309,4.309,0,0,0,.435-1.713q.071-1,.069-2.237c0-.756-.022-1.48-.069-2.165a5.087,5.087,0,0,0-.41-1.78,2.631,2.631,0,0,0-1.071-1.185A4.16,4.16,0,0,0,159.757,84.383Z" transform="translate(-92 -80)" fill="#fff" fill-rule="evenodd"/>
</svg>
